<svg id="그룹_4" data-name="그룹 4" xmlns="http://www.w3.org/2000/svg" width="1000" height="1000" viewBox="0 0 1000 1000">
  <rect id="사각형_1" data-name="사각형 1" width="1000" height="1000"/>
  <g id="그룹_3" data-name="그룹 3" transform="translate(136 133)">
    <path id="사각형_3" data-name="사각형 3" d="M0,0H638a0,0,0,0,1,0,0V348a15,15,0,0,1-15,15H15A15,15,0,0,1,0,348V0A0,0,0,0,1,0,0Z" transform="translate(51 371)" fill="#fff"/>
    <g id="그룹_1" data-name="그룹 1" transform="matrix(0.921, -0.391, 0.391, 0.921, -204.602, 137.133)">
      <path id="사각형_2" data-name="사각형 2" d="M15,0H623a15,15,0,0,1,15,15V133a0,0,0,0,1,0,0H0a0,0,0,0,1,0,0V15A15,15,0,0,1,15,0Z" transform="translate(145 183)" fill="#fff"/>
      <rect id="사각형_4" data-name="사각형 4" width="25" height="133" transform="translate(272 183)"/>
      <rect id="사각형_5" data-name="사각형 5" width="25" height="133" transform="translate(392 183)"/>
      <rect id="사각형_6" data-name="사각형 6" width="25" height="133" transform="translate(512 183)"/>
      <rect id="사각형_7" data-name="사각형 7" width="25" height="133" transform="translate(632 183)"/>
    </g>
    <rect id="사각형_8" data-name="사각형 8" width="174" height="177" rx="10" transform="translate(102 464)"/>
    <g id="그룹_2" data-name="그룹 2" transform="translate(-6 -2)">
      <rect id="사각형_9" data-name="사각형 9" width="280" height="38" rx="10" transform="translate(309 491)"/>
      <rect id="사각형_10" data-name="사각형 10" width="181" height="77" rx="10" transform="translate(309 542)"/>
    </g>
  </g>
</svg>
